<svg width="19" height="19" viewBox="0 0 19 19" fill="none" xmlns="http://www.w3.org/2000/svg">
<path d="M8.54834 4.09136C8.19209 3.83896 7.95459 3.38103 7.95459 2.8654C7.95459 2.06853 8.51396 1.4231 9.20459 1.4231C9.89522 1.4231 10.4546 2.06853 10.4546 2.8654C10.4546 3.38463 10.2171 3.83896 9.86084 4.09136L11.6515 8.22358C11.9358 8.87983 12.6733 9.06733 13.1702 8.60939L15.9546 6.03848C15.7983 5.79689 15.7046 5.49761 15.7046 5.1731C15.7046 4.37622 16.264 3.73079 16.9546 3.73079C17.6452 3.73079 18.2046 4.37622 18.2046 5.1731C18.2046 5.96997 17.6452 6.6154 16.9546 6.6154C16.9483 6.6154 16.939 6.6154 16.9327 6.6154L15.5046 15.6803C15.3327 16.7765 14.5046 17.5769 13.5358 17.5769H4.87334C3.90771 17.5769 3.07959 16.7801 2.90459 15.6803L1.47647 6.6154C1.47021 6.6154 1.46084 6.6154 1.45459 6.6154C0.763966 6.6154 0.20459 5.96997 0.20459 5.1731C0.20459 4.37622 0.763966 3.73079 1.45459 3.73079C2.14521 3.73079 2.70459 4.37622 2.70459 5.1731C2.70459 5.49761 2.61084 5.79689 2.45459 6.03848L5.23897 8.60939C5.73584 9.06733 6.47334 8.87983 6.75772 8.22358L8.54834 4.09136Z" fill="#FFD700"/>
<path d="M9.3229 9.90765C9.44424 9.78631 9.5749 9.72565 9.7149 9.72565C9.85957 9.72565 9.97157 9.73731 10.0509 9.76065C10.1302 9.78398 10.1909 9.81198 10.2329 9.84465C10.2749 9.87265 10.3076 9.92165 10.3309 9.99165C10.3542 10.071 10.3659 10.1946 10.3659 10.3626V14.2616C10.3659 14.369 10.3612 14.4506 10.3519 14.5066C10.3472 14.558 10.3262 14.6186 10.2889 14.6886C10.2236 14.8146 10.0416 14.8776 9.7429 14.8776C9.45357 14.8776 9.2739 14.817 9.2039 14.6956C9.16657 14.6256 9.14324 14.5626 9.1339 14.5066C9.12924 14.446 9.1269 14.3596 9.1269 14.2476V11.7486L9.0359 11.8326C8.84457 11.9773 8.68124 12.0496 8.5459 12.0496C8.41057 12.0496 8.26824 11.968 8.1189 11.8046C7.97424 11.6413 7.9019 11.4966 7.9019 11.3706C7.9019 11.2446 7.9859 11.107 8.1539 10.9576L9.3019 9.92165L9.3229 9.90765Z" fill="#FF4081"/>
</svg>
